<svg width="23" height="23" viewBox="0 0 23 23" fill="none" xmlns="http://www.w3.org/2000/svg">
<path d="M15.525 20.125V17.6813C15.525 16.9188 15.2221 16.1875 14.6829 15.6483C14.1438 15.1092 13.4125 14.8063 12.65 14.8063H10.35C9.5875 14.8063 8.85624 15.1092 8.31707 15.6483C7.7779 16.1875 7.475 16.9188 7.475 17.6813V20.125M20.8438 15.0938V13.3688C20.8438 12.6063 20.5408 11.875 20.0017 11.3358C19.4625 10.7967 18.7312 10.4938 17.9688 10.4938H15.8125M2.15625 15.0938V13.3688C2.15625 12.6063 2.45915 11.875 2.99832 11.3358C3.53748 10.7967 4.26875 10.4938 5.03125 10.4938H7.1875M13.8072 10.2134C13.8072 10.5164 13.7475 10.8164 13.6316 11.0964C13.5156 11.3763 13.3457 11.6306 13.1314 11.8449C12.9172 12.0591 12.6628 12.2291 12.3829 12.345C12.103 12.4609 11.803 12.5206 11.5 12.5206C11.197 12.5206 10.897 12.4609 10.6171 12.345C10.3372 12.2291 10.0828 12.0591 9.86857 11.8449C9.65433 11.6306 9.48438 11.3763 9.36844 11.0964C9.25249 10.8164 9.19281 10.5164 9.19281 10.2134C9.19281 9.60153 9.43589 9.01469 9.86857 8.58201C10.3013 8.14933 10.8881 7.90625 11.5 7.90625C12.1119 7.90625 12.6987 8.14933 13.1314 8.58201C13.5641 9.01469 13.8072 9.60153 13.8072 10.2134ZM19.2697 5.90094C19.2697 6.20392 19.21 6.50394 19.0941 6.78386C18.9781 7.06378 18.8082 7.31812 18.5939 7.53237C18.3797 7.74661 18.1253 7.91655 17.8454 8.0325C17.5655 8.14845 17.2655 8.20813 16.9625 8.20813C16.6595 8.20813 16.3595 8.14845 16.0796 8.0325C15.7997 7.91655 15.5453 7.74661 15.3311 7.53237C15.1168 7.31812 14.9469 7.06378 14.8309 6.78386C14.715 6.50394 14.6553 6.20392 14.6553 5.90094C14.6553 5.28903 14.8984 4.70219 15.3311 4.26951C15.7638 3.83683 16.3506 3.59375 16.9625 3.59375C17.5744 3.59375 18.1612 3.83683 18.5939 4.26951C19.0266 4.70219 19.2697 5.28903 19.2697 5.90094ZM8.48844 5.90094C8.48844 6.20392 8.42876 6.50394 8.31281 6.78386C8.19687 7.06378 8.02692 7.31812 7.81268 7.53237C7.59844 7.74661 7.34409 7.91655 7.06417 8.0325C6.78425 8.14845 6.48423 8.20813 6.18125 8.20813C5.87827 8.20813 5.57825 8.14845 5.29833 8.0325C5.01841 7.91655 4.76406 7.74661 4.54982 7.53237C4.33558 7.31812 4.16563 7.06378 4.04969 6.78386C3.93374 6.50394 3.87406 6.20392 3.87406 5.90094C3.87406 5.28903 4.11714 4.70219 4.54982 4.26951C4.9825 3.83683 5.56935 3.59375 6.18125 3.59375C6.79315 3.59375 7.38 3.83683 7.81268 4.26951C8.24536 4.70219 8.48844 5.28903 8.48844 5.90094Z" stroke="white" stroke-width="1.5"/>
</svg>
