<svg width="23" height="23" viewBox="0 0 23 23" fill="none" xmlns="http://www.w3.org/2000/svg">
<path d="M11.5 14.375V13.6994C11.5002 13.2763 11.6418 12.8655 11.9022 12.5321C12.1627 12.1987 12.5271 11.9619 12.9375 11.8594C13.3479 11.7568 13.7123 11.52 13.9728 11.1867C14.2332 10.8533 14.3748 10.4424 14.375 10.0194V9.29344C14.375 7.73375 13.0856 6.46875 11.5244 6.46875C9.93744 6.46875 8.625 7.75531 8.625 9.34375M20.8438 11.5C20.8437 13.9781 19.8593 16.3547 18.107 18.107C16.3547 19.8593 13.9781 20.8438 11.5 20.8438C9.02188 20.8438 6.64526 19.8593 4.89297 18.107C3.14068 16.3547 2.15625 13.9781 2.15625 11.5C2.15625 9.02188 3.14068 6.64526 4.89297 4.89297C6.64526 3.14068 9.02188 2.15625 11.5 2.15625C13.9781 2.15625 16.3547 3.14068 18.107 4.89297C19.8593 6.64526 20.8437 9.02188 20.8438 11.5ZM11.5 16.1719H11.5072V16.1791H11.5V16.1719ZM11.8594 16.1719C11.8594 16.2672 11.8215 16.3586 11.7541 16.426C11.6867 16.4934 11.5953 16.5312 11.5 16.5312C11.4047 16.5312 11.3133 16.4934 11.2459 16.426C11.1785 16.3586 11.1406 16.2672 11.1406 16.1719C11.1406 16.0766 11.1785 15.9852 11.2459 15.9178C11.3133 15.8504 11.4047 15.8125 11.5 15.8125C11.5953 15.8125 11.6867 15.8504 11.7541 15.9178C11.8215 15.9852 11.8594 16.0766 11.8594 16.1719Z" stroke="#818181" stroke-width="1.5"/>
</svg>
